<?xml version="1.0" encoding="UTF-8" standalone="no"?>
<!-- Created with Inkscape (http://www.inkscape.org/) -->

<svg
   xmlns:dc="http://purl.org/dc/elements/1.1/"
   xmlns:cc="http://creativecommons.org/ns#"
   xmlns:rdf="http://www.w3.org/1999/02/22-rdf-syntax-ns#"
   xmlns:svg="http://www.w3.org/2000/svg"
   xmlns="http://www.w3.org/2000/svg"
   xmlns:sodipodi="http://sodipodi.sourceforge.net/DTD/sodipodi-0.dtd"
   xmlns:inkscape="http://www.inkscape.org/namespaces/inkscape"
   width="600"
   height="200"
   viewBox="0 0 158.74999 52.916667"
   version="1.1"
   id="svg6061"
   inkscape:version="0.92.4 (5da689c313, 2019-01-14)"
   sodipodi:docname="drawing.svg">
  <defs
     id="defs6055" />
  <sodipodi:namedview
     id="base"
     pagecolor="#000000"
     bordercolor="#666666"
     borderopacity="1.0"
     inkscape:pageopacity="0"
     inkscape:pageshadow="2"
     inkscape:zoom="0.98994949"
     inkscape:cx="227.93002"
     inkscape:cy="144.99153"
     inkscape:document-units="mm"
     inkscape:current-layer="layer1"
     showgrid="false"
     units="px"
     inkscape:window-width="1366"
     inkscape:window-height="705"
     inkscape:window-x="-8"
     inkscape:window-y="-8"
     inkscape:window-maximized="1" />
  <metadata
     id="metadata6058">
    <rdf:RDF>
      <cc:Work
         rdf:about="">
        <dc:format>image/svg+xml</dc:format>
        <dc:type
           rdf:resource="http://purl.org/dc/dcmitype/StillImage" />
        <dc:title></dc:title>
      </cc:Work>
    </rdf:RDF>
  </metadata>
  <g
     inkscape:label="Layer 1"
     inkscape:groupmode="layer"
     id="layer1"
     transform="translate(0,-244.08331)">
    <g
       id="g6074"
       transform="translate(-28.740642,118.29526)">
      <path
         style="fill:#fefefe;stroke-width:0.08466667"
         d="m 95.9638,173.50752 c -2.022813,-0.49244 -4.352317,-2.08749 -5.279406,-3.61489 -0.518015,-0.85344 -0.671293,-1.46299 -0.66558,-2.64685 0.0075,-1.56433 0.377745,-2.76808 1.438022,-4.67594 0.310087,-0.55797 2.316301,-3.89657 4.458254,-7.41911 3.405002,-5.59968 3.919799,-6.40462 4.09607,-6.40462 h 0.20162 l -0.0744,0.86783 c -0.23425,2.73215 0.13303,4.58942 1.20553,6.0962 0.15752,0.2213 0.2864,0.48213 0.2864,0.57962 0,0.0975 -0.97986,1.76428 -2.177456,3.70397 -2.851684,4.61873 -2.930181,4.75217 -3.11463,5.29481 -0.153482,0.45154 -0.153506,0.4729 -9.05e-4,0.81131 0.176959,0.39242 0.607516,0.81289 1.154938,1.12787 0.581915,0.33484 0.850757,0.35899 1.364449,0.12261 0.831307,-0.38255 1.714504,-1.39288 2.779624,-3.17975 0.29642,-0.49728 1.59777,-2.60675 2.89189,-4.68773 2.70933,-4.35666 2.94329,-4.78268 3.0018,-5.46587 0.0587,-0.68542 -0.10851,-1.01237 -0.91207,-1.78345 -1.25047,-1.19993 -1.60727,-2.00353 -1.44033,-3.24396 0.17514,-1.30145 0.84796,-2.43493 1.67958,-2.82956 0.22465,-0.1066 0.48092,-0.13182 1.10977,-0.10918 0.98433,0.0354 1.36026,0.18848 2.77269,1.12882 1.61083,1.07243 2.59943,2.3177 2.95492,3.72208 0.18889,0.74624 0.1683,2.22966 -0.0425,3.059 -0.26215,1.03154 -0.95809,2.36493 -3.244,6.21538 -1.37822,2.32151 -4.92188,7.91776 -5.76335,9.10167 -1.60768,2.2619 -3.463,3.7195 -5.335172,4.19149 -0.792574,0.19982 -2.597382,0.22045 -3.345787,0.0383 z m 33.3525,-20.06241 v -10.96433 l 4.33917,3.4e-4 c 5.98413,4.2e-4 7.59372,0.12022 8.8265,0.65698 1.16526,0.50738 2.69776,1.79893 3.38924,2.85638 0.97641,1.49317 1.28823,3.60028 0.79578,5.37736 -0.38034,1.37251 -1.08766,2.37868 -2.70178,3.84331 -0.55967,0.50784 -1.01758,0.95332 -1.01758,0.98996 0,0.0366 0.42338,0.93559 0.94084,1.99766 1.68787,3.46434 2.0225,4.32528 2.0225,5.20348 0,0.90242 -0.37336,1.05634 -2.39864,0.98892 -0.83652,-0.0279 -1.09489,-0.0671 -1.33057,-0.20229 -0.32618,-0.18708 -0.48113,-0.46716 -1.6133,-2.91606 -1.74997,-3.78524 -2.09292,-4.34087 -2.93553,-4.75586 -0.37599,-0.18517 -0.51386,-0.19885 -2.27058,-0.22519 l -1.87029,-0.0281 -0.0584,3.24538 c -0.0658,3.65503 -0.12703,4.23112 -0.48526,4.56575 -0.30743,0.28719 -0.59063,0.32857 -2.25623,0.3297 l -1.37583,8.9e-4 z m 6.79093,-0.72869 c 0.17266,-0.0441 0.3316,-0.10885 0.35321,-0.14382 0.0563,-0.0912 -1.72236,-4.45678 -2.04717,-5.02448 -0.71198,-1.24443 -0.90597,-0.74318 -0.90597,2.34099 0,1.81885 0.0167,2.06561 0.1592,2.35243 0.17376,0.34973 0.36069,0.48224 0.81447,0.57739 0.33379,0.07 1.15359,0.0183 1.62626,-0.10251 z m 5.88723,-1.25566 c 0.61032,-0.9078 0.62046,-2.63506 0.0212,-3.60476 -0.33292,-0.53869 -1.62975,-1.22656 -2.3124,-1.22656 -0.17202,0 -0.3427,0.0634 -0.42979,0.15962 -0.13698,0.15137 -0.12677,0.21398 0.1973,1.21009 0.36098,1.10955 0.92914,2.35829 1.37316,3.01801 0.58592,0.87056 0.8064,0.95556 1.15058,0.4436 z m -94.042832,12.77641 c -2.258483,-0.0317 -5.677959,-0.0874 -7.598834,-0.12395 l -3.4925,-0.0664 v -0.23397 c 0,-0.15461 1.439451,-2.72824 4.243404,-7.58687 5.152685,-8.92849 6.856591,-11.69472 7.88851,-12.80674 0.25152,-0.27105 0.381818,-0.34583 0.602582,-0.34583 0.328274,0 0.311879,-0.0217 1.599668,2.11667 2.101075,3.48881 8.135514,14.35973 9.510651,17.13325 0.439264,0.88595 0.623853,1.35177 0.623853,1.57433 v 0.31608 l -1.2065,0.0552 c -1.392344,0.0637 -6.27023,0.051 -12.170834,-0.0318 z m 4.852801,-4.06534 c 0.734934,-0.0489 1.407492,-0.11559 1.494574,-0.14816 0.145333,-0.0544 0.118458,-0.1461 -0.327394,-1.11756 -1.190757,-2.59452 -3.153529,-6.29166 -3.750995,-7.06549 -0.999499,-1.29454 -1.220135,-1.09724 -3.735278,3.34016 -1.634132,2.88305 -2.540611,4.67684 -2.402478,4.75414 0.109765,0.0614 1.490255,0.22542 2.260103,0.26848 1.211151,0.0678 5.267055,0.0479 6.461468,-0.0316 z m 100.620701,4.08983 -0.8255,-0.0277 v -0.32619 c 0,-0.44714 0.7543,-1.94873 3.4766,-6.92091 2.12511,-3.88143 5.86897,-10.34662 7.54219,-13.02444 1.14692,-1.83554 0.98249,-1.88765 2.59043,0.82103 4.38077,7.3797 10.85945,18.73245 10.85945,19.02928 v 0.23175 l -3.15383,0.0595 c -9.93024,0.1873 -17.79959,0.24786 -20.48934,0.15767 z m 15.5575,-4.17047 c 0.4191,-0.0557 0.80947,-0.12746 0.86748,-0.1595 0.17902,-0.0989 -1.30635,-2.93338 -3.54298,-6.76107 -0.55079,-0.94261 -1.13837,-1.9279 -1.30574,-2.18954 l -0.30431,-0.47572 -0.40748,0.58088 c -0.98668,1.40657 -3.06769,5.0817 -4.11631,7.26954 -0.8065,1.68268 -0.79278,1.62886 -0.43245,1.69645 1.12428,0.21092 7.73785,0.2388 9.24179,0.039 z m -93.801457,4.05897 c -4.260906,-0.49441 -7.278545,-3.17145 -8.249495,-7.31838 -0.612452,-2.61579 -0.355931,-6.40445 0.589334,-8.7041 0.894549,-2.17626 2.893196,-4.12355 5.072449,-4.94211 2.19947,-0.82616 5.337027,-0.9181 8.251169,-0.24179 2.023862,0.46969 3.970839,1.37329 4.370225,2.02824 0.356909,0.58528 0.153087,1.4952 -0.457995,2.04462 -0.56744,0.51017 -1.096686,0.65926 -2.167001,0.61044 -0.749718,-0.0342 -0.882301,-0.0683 -1.681391,-0.43232 -1.253448,-0.57103 -1.921424,-0.74159 -3.113617,-0.79505 -0.866616,-0.0389 -1.124403,-0.0184 -1.735667,0.1378 -2.495571,0.63767 -4.459907,2.55662 -5.182315,5.06259 -0.155125,0.53811 -0.190182,0.87031 -0.190234,1.80268 -7.8e-5,1.37768 0.175043,2.13336 0.797194,3.44002 1.243265,2.61115 2.317855,3.27756 5.467347,3.3906 2.734755,0.0982 3.709321,-0.28731 4.795328,-1.8967 0.482659,-0.71527 0.918294,-1.59224 0.918392,-1.84879 7.9e-5,-0.20655 -0.252206,-0.4969 -0.573888,-0.66047 -0.368926,-0.18759 -1.270174,-0.30794 -2.311647,-0.30869 -1.794741,-0.001 -2.803986,-0.18967 -3.167367,-0.5912 -0.430361,-0.47555 -0.113513,-2.57648 0.456814,-3.02901 0.315393,-0.25026 0.774105,-0.37515 1.540318,-0.41938 0.979142,-0.0565 7.621341,0.22175 7.732844,0.32397 0.112533,0.10317 -0.09185,4.70176 -0.246654,5.54979 -0.650685,3.56443 -2.627291,5.70406 -6.012687,6.5086 -1.490712,0.35427 -3.37798,0.46541 -4.901456,0.28864 z m 28.629277,-6.71793 c -1.76707,-0.77149 -2.53175,-1.69899 -3.09149,-3.74975 -0.21647,-0.7931 -0.22665,-0.92234 -0.22881,-2.90437 -0.004,-3.84896 0.49782,-5.4467 3.08586,-9.82133 2.17399,-3.67473 3.53119,-5.49707 5.52192,-7.4144 1.43239,-1.37958 2.73273,-2.14411 4.32174,-2.54096 0.84388,-0.21076 2.91353,-0.25491 3.92227,-0.0837 1.95347,0.3316 3.19332,0.93706 4.43347,2.16505 0.91225,0.90329 1.27487,1.45975 1.61944,2.48513 0.7653,2.27744 0.19572,5.02983 -1.80726,8.7332 -1.76377,3.2611 -2.90611,4.9394 -6.09423,8.9535 -1.12025,1.41049 -1.28843,1.5875 -1.50829,1.5875 -0.30136,0 -0.30883,-0.0822 -0.0801,-0.88204 0.37079,-1.29656 0.29388,-2.62117 -0.22041,-3.7966 -0.2531,-0.57844 -0.81831,-1.42698 -1.16543,-1.74962 -0.12146,-0.11289 -0.22083,-0.29654 -0.22083,-0.40811 0,-0.11973 1.02564,-1.83321 2.50294,-4.18153 2.51023,-3.99025 2.76474,-4.43737 2.91984,-5.12946 0.15935,-0.71104 -0.26842,-1.29518 -1.24748,-1.70353 -0.56535,-0.2358 -1.01274,-0.23164 -1.56939,0.0146 -1.4893,0.65873 -3.24623,3.02498 -5.91066,7.96049 l -0.54191,1.00383 -0.38384,-0.0678 c -0.58318,-0.103 -1.11785,-0.0762 -1.39984,0.0703 -0.70425,0.36567 -1.45909,1.56413 -1.82485,2.89735 -0.34094,1.24274 -0.0685,1.99488 1.16618,3.21957 0.84884,0.84197 1.03967,1.17296 1.03967,1.8032 0,0.81414 -0.47095,1.81039 -1.51946,3.21425 -0.42017,0.56257 -0.4837,0.61375 -0.76066,0.6128 -0.16622,-5.9e-4 -0.59749,-0.12995 -0.95839,-0.28751 z"
         id="path6080"
         inkscape:connector-curvature="0" />
      <path
         style="fill:#fefefd;stroke-width:0.08466667"
         d="m 98.793964,173.21478 c -0.02878,-0.0466 0.02837,-0.0847 0.127,-0.0847 0.09863,0 0.15578,0.0381 0.127,0.0847 -0.02878,0.0466 -0.08593,0.0847 -0.127,0.0847 -0.04107,0 -0.09822,-0.0381 -0.127,-0.0847 z m 0.804333,-0.254 c 0,-0.0466 0.07845,-0.0847 0.17433,-0.0847 0.09588,0 0.150783,0.0381 0.122003,0.0847 -0.02878,0.0466 -0.107228,0.0847 -0.17433,0.0847 -0.0671,0 -0.122003,-0.0381 -0.122003,-0.0847 z m 0.423333,-0.16934 c 0,-0.0466 0.0571,-0.0847 0.127,-0.0847 0.0699,0 0.127,0.0381 0.127,0.0847 0,0.0466 -0.0572,0.0847 -0.127,0.0847 -0.0699,0 -0.127,-0.0381 -0.127,-0.0847 z m 1.86267,-1.18533 c 0,-0.0466 0.0572,-0.0847 0.127,-0.0847 0.0698,0 0.127,0.0381 0.127,0.0847 0,0.0466 -0.0572,0.0847 -0.127,0.0847 -0.0699,0 -0.127,-0.0381 -0.127,-0.0847 z m -11.345337,-2.667 c 0,-0.0699 0.0381,-0.127 0.08467,-0.127 0.04657,0 0.08467,0.0572 0.08467,0.127 0,0.0699 -0.0381,0.127 -0.08467,0.127 -0.04657,0 -0.08467,-0.0572 -0.08467,-0.127 z m 9.905997,-2.45533 c 0,-0.0699 0.0381,-0.127 0.0847,-0.127 0.0466,0 0.0847,0.0572 0.0847,0.127 0,0.0699 -0.0381,0.127 -0.0847,0.127 -0.0466,0 -0.0847,-0.0572 -0.0847,-0.127 z m -48.175332,-2.45534 c -0.08934,-0.10764 -0.06998,-0.127 0.127,-0.127 0.196979,0 0.216336,0.0194 0.127,0.127 -0.05797,0.0699 -0.11512,0.127 -0.127,0.127 -0.01188,0 -0.06903,-0.0572 -0.127,-0.127 z m -6.900333,-0.127 c -0.02878,-0.0466 0.02837,-0.0847 0.127,-0.0847 0.09863,0 0.155779,0.0381 0.127,0.0847 -0.02878,0.0466 -0.08593,0.0847 -0.127,0.0847 -0.04107,0 -0.09822,-0.0381 -0.127,-0.0847 z m 45.762335,-0.11663 c 0,-0.20473 0.215624,-0.45796 0.309776,-0.36381 0.06789,0.0679 -0.139207,0.56511 -0.235381,0.56511 -0.04092,0 -0.07439,-0.0906 -0.07439,-0.2013 z m 77.17367,0.11663 c -0.0288,-0.0466 0.0284,-0.0847 0.127,-0.0847 0.0986,0 0.15578,0.0381 0.127,0.0847 -0.0288,0.0466 -0.0859,0.0847 -0.127,0.0847 -0.0411,0 -0.0982,-0.0381 -0.127,-0.0847 z M 37.452961,163.18178 c 0,-0.0699 0.0381,-0.127 0.08467,-0.127 0.04657,0 0.08467,0.0572 0.08467,0.127 0,0.0699 -0.0381,0.127 -0.08467,0.127 -0.04657,0 -0.08467,-0.0572 -0.08467,-0.127 z m 22.352001,-1.60867 c 0,-0.0699 0.0381,-0.127 0.08467,-0.127 0.04657,0 0.08467,0.0572 0.08467,0.127 0,0.0698 -0.0381,0.127 -0.08467,0.127 -0.04657,0 -0.08467,-0.0572 -0.08467,-0.127 z m 9.652,-0.508 c 0,-0.0699 0.0381,-0.127 0.08467,-0.127 0.04657,0 0.08467,0.0572 0.08467,0.127 0,0.0699 -0.0381,0.127 -0.08467,0.127 -0.04657,0 -0.08467,-0.0572 -0.08467,-0.127 z m -24.400934,-0.65193 c 0.07902,-0.079 0.124178,-0.079 0.2032,0 0.07902,0.079 0.05644,0.1016 -0.1016,0.1016 -0.158045,0 -0.180622,-0.0226 -0.1016,-0.1016 z m 123.613342,0 c 0.079,-0.079 0.12418,-0.079 0.2032,0 0.079,0.079 0.0564,0.1016 -0.1016,0.1016 -0.15805,0 -0.18062,-0.0226 -0.1016,-0.1016 z m -28.26044,-0.30057 c 0.001,-0.18143 0.0194,-0.2048 0.0834,-0.10583 0.10705,0.16565 0.10705,0.33866 0,0.33866 -0.0466,0 -0.0841,-0.10477 -0.0834,-0.23283 z m -59.6913,-0.1905 c 0,-0.0466 0.05715,-0.0847 0.127,-0.0847 0.06985,0 0.127,0.0381 0.127,0.0847 0,0.0466 -0.05715,0.0847 -0.127,0.0847 -0.06985,0 -0.127,-0.0381 -0.127,-0.0847 z m 0.437783,-0.3935 c 0.01641,-0.0852 0.09953,-0.16831 0.184711,-0.18472 0.111852,-0.0215 0.146596,0.0132 0.125055,0.12506 -0.01641,0.0852 -0.09952,0.16831 -0.184711,0.18471 -0.111851,0.0215 -0.146596,-0.0132 -0.125055,-0.12505 z m 3.964883,-0.32617 c 0,-0.0699 0.0381,-0.127 0.08467,-0.127 0.04657,0 0.08467,0.0572 0.08467,0.127 0,0.0699 -0.0381,0.127 -0.08467,0.127 -0.04657,0 -0.08467,-0.0572 -0.08467,-0.127 z m -30.903334,-0.508 c 0,-0.0698 0.0381,-0.127 0.08467,-0.127 0.04657,0 0.08467,0.0572 0.08467,0.127 0,0.0699 -0.0381,0.127 -0.08467,0.127 -0.04657,0 -0.08467,-0.0572 -0.08467,-0.127 z m 40.386001,-0.762 c 0,-0.0699 0.0381,-0.127 0.08467,-0.127 0.04657,0 0.08467,0.0572 0.08467,0.127 0,0.0698 -0.0381,0.127 -0.08467,0.127 -0.04657,0 -0.08467,-0.0572 -0.08467,-0.127 z m 48.429337,-0.42333 c 0,-0.0699 0.0381,-0.127 0.0847,-0.127 0.0466,0 0.0847,0.0571 0.0847,0.127 0,0.0699 -0.0381,0.127 -0.0847,0.127 -0.0466,0 -0.0847,-0.0572 -0.0847,-0.127 z m 13.208,-0.16933 c 0,-0.0699 0.0381,-0.127 0.0847,-0.127 0.0466,0 0.0847,0.0571 0.0847,0.127 0,0.0699 -0.0381,0.127 -0.0847,0.127 -0.0466,0 -0.0847,-0.0572 -0.0847,-0.127 z M 40.924294,157.17044 c 0,-0.0699 0.0381,-0.127 0.08467,-0.127 0.04657,0 0.08467,0.0572 0.08467,0.127 0,0.0698 -0.0381,0.127 -0.08467,0.127 -0.04657,0 -0.08467,-0.0572 -0.08467,-0.127 z m 59.774666,-0.0847 c 0,-0.0699 0.0381,-0.127 0.0847,-0.127 0.0466,0 0.0847,0.0572 0.0847,0.127 0,0.0699 -0.0381,0.127 -0.0847,0.127 -0.0466,0 -0.0847,-0.0572 -0.0847,-0.127 z M 53.202258,156.4719 c 10e-4,-0.18143 0.01942,-0.20479 0.08337,-0.10583 0.107054,0.16565 0.107054,0.33867 0,0.33867 -0.04657,0 -0.08408,-0.10478 -0.08337,-0.23284 z m 85.145152,0.17639 c -0.0974,-0.0974 -0.0617,-0.19755 0.0706,-0.19755 0.0699,0 0.127,0.0571 0.127,0.127 0,0.13221 -0.10014,0.16797 -0.19756,0.0705 z m -31.46778,-0.32455 c 0,-0.0699 0.0381,-0.127 0.0847,-0.127 0.0466,0 0.0847,0.0572 0.0847,0.127 0,0.0699 -0.0381,0.127 -0.0847,0.127 -0.0466,0 -0.0847,-0.0572 -0.0847,-0.127 z m -49.953335,-0.0847 c 0,-0.0699 0.0381,-0.127 0.08467,-0.127 0.04657,0 0.08467,0.0572 0.08467,0.127 0,0.0699 -0.0381,0.127 -0.08467,0.127 -0.04657,0 -0.08467,-0.0571 -0.08467,-0.127 z m 45.101415,-0.35048 c -0.0676,-0.0676 0.009,-0.19985 0.11558,-0.19985 0.0438,0 0.0797,0.0571 0.0797,0.127 0,0.13093 -0.0999,0.1682 -0.19525,0.0729 z m -31.470081,-0.19985 c 0,-0.15805 0.02258,-0.18062 0.1016,-0.1016 0.07902,0.079 0.07902,0.12418 0,0.2032 -0.07902,0.079 -0.1016,0.0564 -0.1016,-0.1016 z m -24.722668,-0.29634 c 0,-0.0699 0.0381,-0.127 0.08467,-0.127 0.04657,0 0.08467,0.0571 0.08467,0.127 0,0.0699 -0.0381,0.127 -0.08467,0.127 -0.04657,0 -0.08467,-0.0572 -0.08467,-0.127 z m 35.263669,-0.127 c -0.02878,-0.0466 0.02837,-0.0847 0.127,-0.0847 0.09863,0 0.155779,0.0381 0.127,0.0847 -0.02878,0.0466 -0.08593,0.0847 -0.127,0.0847 -0.04107,0 -0.09822,-0.0381 -0.127,-0.0847 z m 26.45833,-0.21166 c 0,-0.0699 0.0381,-0.127 0.0847,-0.127 0.0466,0 0.0847,0.0571 0.0847,0.127 0,0.0699 -0.0381,0.127 -0.0847,0.127 -0.0466,0 -0.0847,-0.0572 -0.0847,-0.127 z m 0.20711,-0.47305 c -0.0313,-0.0506 -0.0145,-0.13444 0.0373,-0.18626 0.0692,-0.0692 0.0942,-0.0447 0.0942,0.092 0,0.20443 -0.044,0.23593 -0.13156,0.0942 z m 36.66568,-0.33055 c -0.0295,-0.0477 0.003,-0.14356 0.0728,-0.21305 0.17106,-0.17107 0.21576,-0.15889 0.16263,0.0443 -0.0544,0.20798 -0.16302,0.28586 -0.2354,0.16875 z m -47.20212,-0.63574 c 0,-0.0699 0.0381,-0.127 0.08467,-0.127 0.04657,0 0.08467,0.0572 0.08467,0.127 0,0.0699 -0.0381,0.127 -0.08467,0.127 -0.04657,0 -0.08467,-0.0572 -0.08467,-0.127 z m 10.62111,0.035 c -0.0313,-0.0506 -0.0145,-0.13444 0.0373,-0.18627 0.0692,-0.0692 0.0942,-0.0447 0.0942,0.0921 0,0.20443 -0.044,0.23593 -0.13156,0.0942 z m -56.425778,-0.45829 c 0,-0.0699 0.0381,-0.127 0.08467,-0.127 0.04657,0 0.08467,0.0572 0.08467,0.127 0,0.0699 -0.0381,0.127 -0.08467,0.127 -0.04657,0 -0.08467,-0.0571 -0.08467,-0.127 z M 66.87007,153.0567 c -0.03129,-0.0506 -0.01449,-0.13444 0.03734,-0.18626 0.06919,-0.0692 0.09422,-0.0447 0.09422,0.092 0,0.20443 -0.04398,0.23593 -0.131559,0.0942 z m 91.7409,-0.0349 c 0,-0.0699 0.0381,-0.127 0.0847,-0.127 0.0466,0 0.0847,0.0572 0.0847,0.127 0,0.0699 -0.0381,0.127 -0.0847,0.127 -0.0466,0 -0.0847,-0.0571 -0.0847,-0.127 z m -25.23067,-0.33867 c 0,-0.0699 0.0381,-0.127 0.0847,-0.127 0.0466,0 0.0847,0.0572 0.0847,0.127 0,0.0699 -0.0381,0.127 -0.0847,0.127 -0.0466,0 -0.0847,-0.0572 -0.0847,-0.127 z m -27.75444,-0.30268 c 0.0167,-0.0501 0.0665,-0.091 0.11077,-0.091 0.0442,0 0.0941,0.041 0.11077,0.091 0.0167,0.0501 -0.0332,0.091 -0.11077,0.091 -0.0776,0 -0.12746,-0.041 -0.11077,-0.091 z M 80.531363,151.7772 c 0.07902,-0.079 0.124178,-0.079 0.2032,0 0.07902,0.079 0.05645,0.1016 -0.1016,0.1016 -0.158045,0 -0.180622,-0.0226 -0.1016,-0.1016 z m 26.048457,0.0113 c -0.0307,-0.0497 -0.0346,-0.11152 -0.009,-0.13746 0.0697,-0.0696 0.30846,0.0391 0.30846,0.14043 0,0.11492 -0.22835,0.11265 -0.29981,-0.003 z m 52.87781,-0.20604 c 0,-0.0699 0.0381,-0.127 0.0847,-0.127 0.0466,0 0.0847,0.0571 0.0847,0.127 0,0.0699 -0.0381,0.127 -0.0847,0.127 -0.0466,0 -0.0847,-0.0572 -0.0847,-0.127 z M 48.459628,151.11678 c 0,-0.0466 0.05715,-0.0847 0.127,-0.0847 0.06985,0 0.127,0.0381 0.127,0.0847 0,0.0466 -0.05715,0.0847 -0.127,0.0847 -0.06985,0 -0.127,-0.0381 -0.127,-0.0847 z m -3.725333,-0.55034 c 0,-0.0699 0.0381,-0.127 0.08467,-0.127 0.04657,0 0.08467,0.0572 0.08467,0.127 0,0.0699 -0.0381,0.127 -0.08467,0.127 -0.04657,0 -0.08467,-0.0572 -0.08467,-0.127 z m 72.390005,-0.16933 c 0,-0.0699 0.0381,-0.127 0.0847,-0.127 0.0466,0 0.0847,0.0572 0.0847,0.127 0,0.0699 -0.0381,0.127 -0.0847,0.127 -0.0466,0 -0.0847,-0.0572 -0.0847,-0.127 z m -3.06917,-0.17585 c -0.0349,-0.0352 -0.0623,-0.16246 -0.0609,-0.28276 0.002,-0.19189 0.0133,-0.20022 0.0904,-0.0679 0.0964,0.16566 0.0723,0.45324 -0.0294,0.35066 z m 18.9865,-0.41751 c 0,-0.33153 8.5e-4,-0.33227 0.1373,-0.1373 0.12662,0.18077 0.12662,0.2067 0,0.33332 -0.12662,0.12661 -0.1373,0.11137 -0.1373,-0.19602 z m -20.23533,0.0854 c 0,-0.0698 0.0381,-0.127 0.0847,-0.127 0.0466,0 0.0847,0.0572 0.0847,0.127 0,0.0699 -0.0381,0.127 -0.0847,0.127 -0.0466,0 -0.0847,-0.0572 -0.0847,-0.127 z m -7.40472,-0.29048 c -0.0268,-0.0434 -0.01,-0.10275 0.0373,-0.132 0.0473,-0.0293 0.086,0.006 0.086,0.0788 0,0.14872 -0.0508,0.17061 -0.12338,0.0532 z m -5.542599,-0.22457 c 0.0041,-0.0986 0.02412,-0.1187 0.05115,-0.0512 0.02446,0.0611 0.02145,0.13415 -0.0067,0.16228 -0.02813,0.0281 -0.04814,-0.0219 -0.04447,-0.11112 z m -27.946685,-0.75495 c 0,-0.0699 0.0381,-0.127 0.08467,-0.127 0.04657,0 0.08467,0.0572 0.08467,0.127 0,0.0699 -0.0381,0.127 -0.08467,0.127 -0.04657,0 -0.08467,-0.0571 -0.08467,-0.127 z m -4.233334,-0.0847 c 0,-0.0699 0.0381,-0.127 0.08467,-0.127 0.04657,0 0.08467,0.0571 0.08467,0.127 0,0.0699 -0.0381,0.127 -0.08467,0.127 -0.04657,0 -0.08467,-0.0572 -0.08467,-0.127 z m 43.619568,-0.38735 c 0.0167,-0.0501 0.0665,-0.091 0.11077,-0.091 0.0442,0 0.0941,0.0409 0.11077,0.091 0.0167,0.0501 -0.0332,0.091 -0.11077,0.091 -0.0776,0 -0.12746,-0.041 -0.11077,-0.091 z m -43.280901,-0.37465 c 0,-0.0699 0.0381,-0.127 0.08467,-0.127 0.04657,0 0.08467,0.0571 0.08467,0.127 0,0.0699 -0.0381,0.127 -0.08467,0.127 -0.04657,0 -0.08467,-0.0572 -0.08467,-0.127 z m 44.788671,-0.16933 c 0,-0.0698 0.0381,-0.127 0.0847,-0.127 0.0466,0 0.0847,0.0572 0.0847,0.127 0,0.0699 -0.0381,0.127 -0.0847,0.127 -0.0466,0 -0.0847,-0.0572 -0.0847,-0.127 z m 20.48933,-0.63 c 0,-0.0959 0.0381,-0.17433 0.0847,-0.17433 0.0466,0 0.0847,0.0549 0.0847,0.122 0,0.0671 -0.0381,0.14555 -0.0847,0.17433 -0.0466,0.0288 -0.0847,-0.0261 -0.0847,-0.122 z m -86.360002,-0.0473 c 0,-0.0699 0.0381,-0.127 0.08467,-0.127 0.04657,0 0.08467,0.0572 0.08467,0.127 0,0.0699 -0.0381,0.127 -0.08467,0.127 -0.04657,0 -0.08467,-0.0572 -0.08467,-0.127 z m 91.876372,-0.2938 c 0.0161,-0.11054 0.0769,-0.21666 0.13513,-0.23583 0.15233,-0.0502 0.13047,0.19207 -0.0293,0.32467 -0.11799,0.0979 -0.13142,0.0866 -0.10584,-0.0888 z m -5.34703,-0.0379 c 0,-0.0737 0.0603,-0.13406 0.13405,-0.13406 0.14952,0 0.12348,0.18227 -0.0335,0.2346 -0.0553,0.0184 -0.10054,-0.0268 -0.10054,-0.10054 z m -24.97667,-0.13406 c 0,-0.0466 0.0549,-0.0847 0.122,-0.0847 0.0671,0 0.14555,0.0381 0.17433,0.0847 0.0288,0.0466 -0.0261,0.0847 -0.122,0.0847 -0.0959,0 -0.17433,-0.0381 -0.17433,-0.0847 z m 36.99933,-0.21167 c 0,-0.0698 0.0381,-0.127 0.0847,-0.127 0.0466,0 0.0847,0.0572 0.0847,0.127 0,0.0699 -0.0381,0.127 -0.0847,0.127 -0.0466,0 -0.0847,-0.0572 -0.0847,-0.127 z m -39.70867,-0.21166 c 0,-0.0466 0.0572,-0.0847 0.127,-0.0847 0.0699,0 0.127,0.0381 0.127,0.0847 0,0.0466 -0.0572,0.0847 -0.127,0.0847 -0.0698,0 -0.127,-0.0381 -0.127,-0.0847 z m -20.99733,-0.889 c 0,-0.0699 0.0381,-0.127 0.08467,-0.127 0.04657,0 0.08467,0.0572 0.08467,0.127 0,0.0699 -0.0381,0.127 -0.08467,0.127 -0.04657,0 -0.08467,-0.0571 -0.08467,-0.127 z m 81.11067,0 c 0,-0.0699 0.0381,-0.127 0.0847,-0.127 0.0466,0 0.0847,0.0572 0.0847,0.127 0,0.0699 -0.0381,0.127 -0.0847,0.127 -0.0466,0 -0.0847,-0.0571 -0.0847,-0.127 z m -95.842671,-0.0423 c 0,-0.0466 0.05715,-0.0847 0.127,-0.0847 0.06985,0 0.127,0.0381 0.127,0.0847 0,0.0466 -0.05715,0.0847 -0.127,0.0847 -0.06985,0 -0.127,-0.0381 -0.127,-0.0847 z m -19.981334,-0.889 c 0,-0.0699 0.0381,-0.127 0.08467,-0.127 0.04657,0 0.08467,0.0572 0.08467,0.127 0,0.0699 -0.0381,0.127 -0.08467,0.127 -0.04657,0 -0.08467,-0.0571 -0.08467,-0.127 z m 31.140401,-0.82126 c 0.07902,-0.079 0.124178,-0.079 0.2032,0 0.07902,0.079 0.05644,0.1016 -0.1016,0.1016 -0.158045,0 -0.180622,-0.0226 -0.1016,-0.1016 z m 28.126264,-0.0254 c 0,-0.0699 0.0381,-0.127 0.0847,-0.127 0.0466,0 0.0847,0.0571 0.0847,0.127 0,0.0699 -0.0381,0.127 -0.0847,0.127 -0.0466,0 -0.0847,-0.0572 -0.0847,-0.127 z m 12.4473,-0.40217 c 8.5e-4,-0.0582 0.0382,-0.16298 0.0834,-0.23283 0.064,-0.099 0.0824,-0.0756 0.0834,0.10583 8.5e-4,0.12806 -0.0368,0.23283 -0.0834,0.23283 -0.0466,0 -0.0841,-0.0476 -0.0834,-0.10583 z m -5.67396,-0.61383 c 0,-0.0699 0.0381,-0.127 0.0847,-0.127 0.0466,0 0.0847,0.0572 0.0847,0.127 0,0.0699 -0.0381,0.127 -0.0847,0.127 -0.0466,0 -0.0847,-0.0572 -0.0847,-0.127 z m -12.78467,-0.33867 c 0,-0.0699 0.0381,-0.127 0.0847,-0.127 0.0466,0 0.0847,0.0571 0.0847,0.127 0,0.0699 -0.0381,0.127 -0.0847,0.127 -0.0466,0 -0.0847,-0.0572 -0.0847,-0.127 z m 6.94267,-0.254 c 0,-0.0699 0.0381,-0.127 0.0847,-0.127 0.0466,0 0.0847,0.0572 0.0847,0.127 0,0.0699 -0.0381,0.127 -0.0847,0.127 -0.0466,0 -0.0847,-0.0572 -0.0847,-0.127 z m 0.254,-0.42333 c 0,-0.0699 0.0381,-0.127 0.0847,-0.127 0.0466,0 0.0847,0.0572 0.0847,0.127 0,0.0699 -0.0381,0.127 -0.0847,0.127 -0.0466,0 -0.0847,-0.0571 -0.0847,-0.127 z m 0.254,-0.42334 c 0,-0.0699 0.0381,-0.127 0.0847,-0.127 0.0466,0 0.0847,0.0572 0.0847,0.127 0,0.0698 -0.0381,0.127 -0.0847,0.127 -0.0466,0 -0.0847,-0.0572 -0.0847,-0.127 z m 11.87982,0.0142 c 0.032,-0.0853 0.0582,-0.19008 0.0582,-0.23284 0,-0.0428 0.0381,-0.0777 0.0847,-0.0777 0.13504,0 0.098,0.22242 -0.0582,0.34947 -0.12575,0.10229 -0.13589,0.0976 -0.0847,-0.0389 z m -10.01716,-2.68125 c 0,-0.0466 0.0404,-0.0847 0.0897,-0.0847 0.0493,0 0.0661,0.0381 0.0373,0.0847 -0.0288,0.0466 -0.0691,0.0847 -0.0897,0.0847 -0.0205,0 -0.0373,-0.0381 -0.0373,-0.0847 z m 9.906,-3.51366 c 0,-0.0699 0.0381,-0.127 0.0847,-0.127 0.0466,0 0.0847,0.0572 0.0847,0.127 0,0.0699 -0.0381,0.127 -0.0847,0.127 -0.0466,0 -0.0847,-0.0572 -0.0847,-0.127 z m -1.524,-1.73567 c 0,-0.0466 0.0571,-0.0847 0.127,-0.0847 0.0699,0 0.127,0.0381 0.127,0.0847 0,0.0466 -0.0571,0.0847 -0.127,0.0847 -0.0699,0 -0.127,-0.0381 -0.127,-0.0847 z m -0.762,-0.59267 c 0,-0.0466 0.0571,-0.0847 0.127,-0.0847 0.0699,0 0.127,0.0381 0.127,0.0847 0,0.0466 -0.0571,0.0847 -0.127,0.0847 -0.0699,0 -0.127,-0.0381 -0.127,-0.0847 z m -9.144,-0.0847 c 0,-0.0466 0.0571,-0.0847 0.127,-0.0847 0.0699,0 0.127,0.0381 0.127,0.0847 0,0.0466 -0.0572,0.0847 -0.127,0.0847 -0.0699,0 -0.127,-0.0381 -0.127,-0.0847 z"
         id="path6078"
         inkscape:connector-curvature="0" />
      <path
         style="fill:#fefdfd;stroke-width:0.08466667"
         d="m 98.820422,173.15694 c 0.06112,-0.0245 0.134144,-0.0214 0.162278,0.007 0.02813,0.0281 -0.02187,0.0481 -0.111125,0.0445 -0.09863,-0.004 -0.118694,-0.0241 -0.05115,-0.0512 z m 0.846667,-0.254 c 0.06112,-0.0245 0.134144,-0.0214 0.162278,0.007 0.02813,0.0281 -0.02187,0.0482 -0.111125,0.0445 -0.09863,-0.004 -0.118694,-0.0241 -0.05115,-0.0512 z m 0.354541,-0.1115 c 0,-0.0466 0.0594,-0.0847 0.132,-0.0847 0.0726,0 0.10845,0.0381 0.0797,0.0847 -0.0288,0.0466 -0.0882,0.0847 -0.132,0.0847 -0.0438,0 -0.0797,-0.0381 -0.0797,-0.0847 z m 1.86267,-1.18533 c 0,-0.0466 0.0381,-0.0847 0.0847,-0.0847 0.0466,0 0.0847,0.0381 0.0847,0.0847 0,0.0466 -0.0381,0.0847 -0.0847,0.0847 -0.0466,0 -0.0847,-0.0381 -0.0847,-0.0847 z m -11.253986,-2.67405 c 0.0041,-0.0986 0.02412,-0.1187 0.05115,-0.0512 0.02446,0.0611 0.02145,0.13415 -0.0067,0.16228 -0.02813,0.0281 -0.04814,-0.0219 -0.04447,-0.11112 z m 9.814646,-2.40595 c 0,-0.0466 0.0381,-0.0847 0.0847,-0.0847 0.0466,0 0.0847,0.0381 0.0847,0.0847 0,0.0466 -0.0381,0.0847 -0.0847,0.0847 -0.0466,0 -0.0847,-0.0381 -0.0847,-0.0847 z m -48.132998,-2.54 c -0.02878,-0.0466 0.02837,-0.0847 0.127,-0.0847 0.09863,0 0.155779,0.0381 0.127,0.0847 -0.02878,0.0466 -0.08593,0.0847 -0.127,0.0847 -0.04107,0 -0.09822,-0.0381 -0.127,-0.0847 z m 38.819668,-0.11762 c 0,-0.14573 0.331953,-0.55644 0.33585,-0.41553 0.0043,0.15409 -0.18399,0.53315 -0.264774,0.53315 -0.03909,0 -0.07108,-0.0529 -0.07108,-0.11762 z m -45.65121,-0.0249 c 0.06112,-0.0245 0.134143,-0.0215 0.162278,0.007 0.02813,0.0281 -0.02187,0.0481 -0.111125,0.0445 -0.09863,-0.004 -0.118695,-0.0241 -0.05115,-0.0512 z m 122.85134,0 c 0.0611,-0.0245 0.13414,-0.0215 0.16228,0.007 0.0281,0.0281 -0.0219,0.0481 -0.11113,0.0445 -0.0986,-0.004 -0.11869,-0.0241 -0.0512,-0.0512 z m -130.878799,-0.6195 c 0,-0.0466 0.0381,-0.0847 0.08467,-0.0847 0.04657,0 0.08467,0.0381 0.08467,0.0847 0,0.0466 -0.0381,0.0847 -0.08467,0.0847 -0.04657,0 -0.08467,-0.0381 -0.08467,-0.0847 z m 22.352001,-1.656 c 0,-0.0726 0.0381,-0.10845 0.08467,-0.0797 0.04657,0.0288 0.08467,0.0882 0.08467,0.132 0,0.0438 -0.0381,0.0797 -0.08467,0.0797 -0.04657,0 -0.08467,-0.0594 -0.08467,-0.132 z m 9.652,-0.54533 c 0,-0.0466 0.0381,-0.0847 0.08467,-0.0847 0.04657,0 0.08467,0.0381 0.08467,0.0847 0,0.0466 -0.0381,0.0847 -0.08467,0.0847 -0.04657,0 -0.08467,-0.0381 -0.08467,-0.0847 z m -24.399876,-0.56584 c 0.06112,-0.0245 0.134144,-0.0215 0.162278,0.007 0.02813,0.0281 -0.02187,0.0482 -0.111125,0.0445 -0.09863,-0.004 -0.118694,-0.0241 -0.05115,-0.0512 z m 123.698004,0 c 0.0611,-0.0245 0.13415,-0.0215 0.16228,0.007 0.0281,0.0281 -0.0219,0.0482 -0.11112,0.0445 -0.0986,-0.004 -0.1187,-0.0241 -0.0512,-0.0512 z m -28.29811,-0.1848 c -0.0365,-0.059 -0.0434,-0.13016 -0.0155,-0.15811 0.0758,-0.0758 0.15839,0.0357 0.11747,0.15845 -0.0287,0.086 -0.0486,0.086 -0.10198,-3.4e-4 z m -59.654684,-0.35003 c 0,-0.0466 0.0381,-0.0847 0.08467,-0.0847 0.04657,0 0.08467,0.0381 0.08467,0.0847 0,0.0466 -0.0381,0.0847 -0.08467,0.0847 -0.04657,0 -0.08467,-0.0381 -0.08467,-0.0847 z m 0.386929,-0.32907 c -0.02552,-0.0413 0.0069,-0.11934 0.07213,-0.17345 0.131973,-0.10952 0.267113,0.0163 0.175939,0.16385 -0.06479,0.10483 -0.186308,0.10953 -0.248071,0.01 z m 3.937756,-0.39765 c 0.0041,-0.0986 0.02412,-0.1187 0.05115,-0.0512 0.02446,0.0611 0.02145,0.13414 -0.0067,0.16227 -0.02813,0.0281 -0.04815,-0.0219 -0.04447,-0.11112 z m -30.860663,-0.44725 c -0.03647,-0.059 -0.04345,-0.13016 -0.0155,-0.15811 0.07578,-0.0758 0.158392,0.0357 0.117466,0.15845 -0.02868,0.086 -0.04862,0.086 -0.101964,-3.4e-4 z m 40.336645,-0.77336 c 0,-0.0466 0.0381,-0.0847 0.08467,-0.0847 0.04657,0 0.08467,0.0381 0.08467,0.0847 0,0.0466 -0.0381,0.0847 -0.08467,0.0847 -0.04657,0 -0.08467,-0.0381 -0.08467,-0.0847 z m 48.429337,-0.47067 c 0,-0.0726 0.0381,-0.10845 0.0847,-0.0797 0.0466,0.0288 0.0847,0.0882 0.0847,0.132 0,0.0438 -0.0381,0.0797 -0.0847,0.0797 -0.0466,0 -0.0847,-0.0594 -0.0847,-0.132 z m 13.208,-0.122 c 0,-0.0466 0.0381,-0.0847 0.0847,-0.0847 0.0466,0 0.0847,0.0381 0.0847,0.0847 0,0.0466 -0.0381,0.0847 -0.0847,0.0847 -0.0466,0 -0.0847,-0.0381 -0.0847,-0.0847 z M 40.924294,157.21278 c 0,-0.0466 0.0381,-0.0847 0.08467,-0.0847 0.04657,0 0.08467,0.0381 0.08467,0.0847 0,0.0466 -0.0381,0.0847 -0.08467,0.0847 -0.04657,0 -0.08467,-0.0381 -0.08467,-0.0847 z m 59.774666,-0.16934 c 0,-0.0466 0.0381,-0.0847 0.0847,-0.0847 0.0466,0 0.0847,0.0381 0.0847,0.0847 0,0.0466 -0.0381,0.0847 -0.0847,0.0847 -0.0466,0 -0.0847,-0.0381 -0.0847,-0.0847 z m -47.448642,-0.41197 c -0.03647,-0.059 -0.04345,-0.13016 -0.0155,-0.1581 0.07578,-0.0758 0.158392,0.0357 0.117466,0.15845 -0.02868,0.086 -0.04862,0.086 -0.101964,-3.4e-4 z m 85.125312,-0.096 c 0,-0.0466 0.0381,-0.0847 0.0847,-0.0847 0.0466,0 0.0847,0.0381 0.0847,0.0847 0,0.0466 -0.0381,0.0847 -0.0847,0.0847 -0.0466,0 -0.0847,-0.0381 -0.0847,-0.0847 z m -31.496,-0.16933 c 0,-0.0466 0.0381,-0.0847 0.0847,-0.0847 0.0466,0 0.0847,0.0381 0.0847,0.0847 0,0.0466 -0.0381,0.0847 -0.0847,0.0847 -0.0466,0 -0.0847,-0.0381 -0.0847,-0.0847 z m -49.953335,-0.0847 c 0,-0.0466 0.0381,-0.0847 0.08467,-0.0847 0.04657,0 0.08467,0.0381 0.08467,0.0847 0,0.0466 -0.0381,0.0847 -0.08467,0.0847 -0.04657,0 -0.08467,-0.0381 -0.08467,-0.0847 z m 13.638018,-0.55738 c 0.0041,-0.0986 0.02412,-0.1187 0.05115,-0.0512 0.02446,0.0611 0.02145,0.13415 -0.0067,0.16228 -0.02813,0.0281 -0.04814,-0.0219 -0.04447,-0.11112 z m 31.489317,0.0494 c 0,-0.0466 0.0381,-0.0847 0.0847,-0.0847 0.0466,0 0.0847,0.0381 0.0847,0.0847 0,0.0466 -0.0381,0.0847 -0.0847,0.0847 -0.0466,0 -0.0847,-0.0381 -0.0847,-0.0847 z m -56.218669,-0.42333 c 0,-0.0466 0.0381,-0.0847 0.08467,-0.0847 0.04657,0 0.08467,0.0381 0.08467,0.0847 0,0.0466 -0.0381,0.0847 -0.08467,0.0847 -0.04657,0 -0.08467,-0.0381 -0.08467,-0.0847 z m 35.374794,-0.1425 c 0.06112,-0.0245 0.134144,-0.0214 0.162278,0.007 0.02813,0.0281 -0.02187,0.0481 -0.111125,0.0445 -0.09863,-0.004 -0.118695,-0.0241 -0.05115,-0.0512 z m 26.438565,-0.16089 c 0.004,-0.0986 0.0241,-0.11869 0.0512,-0.0512 0.0245,0.0611 0.0215,0.13414 -0.007,0.16228 -0.0281,0.0281 -0.0482,-0.0219 -0.0445,-0.11113 z m 0.16933,-0.508 c 0.004,-0.0986 0.0241,-0.11869 0.0511,-0.0512 0.0245,0.0611 0.0215,0.13414 -0.007,0.16228 -0.0281,0.0281 -0.0481,-0.0219 -0.0445,-0.11113 z m 36.56932,-0.37394 c 0,-0.0466 0.0381,-0.0847 0.0847,-0.0847 0.0466,0 0.0847,0.0381 0.0847,0.0847 0,0.0466 -0.0381,0.0847 -0.0847,0.0847 -0.0466,0 -0.0847,-0.0381 -0.0847,-0.0847 z m -47.15934,-0.508 c 0,-0.0466 0.0381,-0.0847 0.08467,-0.0847 0.04657,0 0.08467,0.0381 0.08467,0.0847 0,0.0466 -0.0381,0.0847 -0.08467,0.0847 -0.04657,0 -0.08467,-0.0381 -0.08467,-0.0847 z m 10.67469,-0.13406 c 0.004,-0.0986 0.0241,-0.11869 0.0511,-0.0511 0.0245,0.0611 0.0215,0.13414 -0.007,0.16228 -0.0281,0.0281 -0.0481,-0.0219 -0.0445,-0.11113 z M 51.422962,153.1488 c 0,-0.0466 0.0381,-0.0847 0.08467,-0.0847 0.04657,0 0.08467,0.0381 0.08467,0.0847 0,0.0466 -0.0381,0.0847 -0.08467,0.0847 -0.04657,0 -0.08467,-0.0381 -0.08467,-0.0847 z m 15.500685,-0.13406 c 0.0041,-0.0986 0.02412,-0.11869 0.05115,-0.0512 0.02446,0.0611 0.02145,0.13414 -0.0067,0.16228 -0.02813,0.0281 -0.04815,-0.0219 -0.04447,-0.11113 z m 91.687323,0.0494 c 0,-0.0466 0.0381,-0.0847 0.0847,-0.0847 0.0466,0 0.0847,0.0381 0.0847,0.0847 0,0.0466 -0.0381,0.0847 -0.0847,0.0847 -0.0466,0 -0.0847,-0.0381 -0.0847,-0.0847 z m -25.23067,-0.33867 c 0,-0.0466 0.0381,-0.0847 0.0847,-0.0847 0.0466,0 0.0847,0.0381 0.0847,0.0847 0,0.0466 -0.0381,0.0847 -0.0847,0.0847 -0.0466,0 -0.0847,-0.0381 -0.0847,-0.0847 z m -27.77067,-0.33866 c 0,-0.0466 0.0381,-0.0847 0.0847,-0.0847 0.0466,0 0.0847,0.0381 0.0847,0.0847 0,0.0466 -0.0381,0.0847 -0.0847,0.0847 -0.0466,0 -0.0847,-0.0381 -0.0847,-0.0847 z m -25.077209,-0.56584 c 0.06112,-0.0245 0.134144,-0.0215 0.162278,0.007 0.02813,0.0281 -0.02187,0.0481 -0.111125,0.0445 -0.09863,-0.004 -0.118694,-0.0241 -0.05115,-0.0511 z m 26.093209,-0.1115 c 0,-0.0466 0.0381,-0.0847 0.0847,-0.0847 0.0466,0 0.0847,0.0381 0.0847,0.0847 0,0.0466 -0.0381,0.0847 -0.0847,0.0847 -0.0466,0 -0.0847,-0.0381 -0.0847,-0.0847 z m 52.832,-0.0847 c 0,-0.0466 0.0381,-0.0847 0.0847,-0.0847 0.0466,0 0.0847,0.0381 0.0847,0.0847 0,0.0466 -0.0381,0.0847 -0.0847,0.0847 -0.0466,0 -0.0847,-0.0381 -0.0847,-0.0847 z m -110.998002,-0.508 c 0,-0.0466 0.0381,-0.0847 0.08467,-0.0847 0.04657,0 0.08467,0.0381 0.08467,0.0847 0,0.0466 -0.0381,0.0847 -0.08467,0.0847 -0.04657,0 -0.08467,-0.0381 -0.08467,-0.0847 z m -3.725333,-0.508 c 0,-0.0466 0.0381,-0.0847 0.08467,-0.0847 0.04657,0 0.08467,0.0381 0.08467,0.0847 0,0.0466 -0.0381,0.0847 -0.08467,0.0847 -0.04657,0 -0.08467,-0.0381 -0.08467,-0.0847 z m 72.390005,-0.254 c 0,-0.0466 0.0381,-0.0847 0.0847,-0.0847 0.0466,0 0.0847,0.0381 0.0847,0.0847 0,0.0466 -0.0381,0.0847 -0.0847,0.0847 -0.0466,0 -0.0847,-0.0381 -0.0847,-0.0847 z m -3.08331,-0.24264 c -0.0365,-0.059 -0.0434,-0.13016 -0.0155,-0.15811 0.0758,-0.0758 0.15839,0.0357 0.11746,0.15845 -0.0287,0.086 -0.0486,0.086 -0.10196,-3.4e-4 z m 19.00064,-0.22303 c 0,-0.12621 0.0365,-0.19913 0.0847,-0.16933 0.0466,0.0288 0.0847,0.10498 0.0847,0.16933 0,0.0644 -0.0381,0.14055 -0.0847,0.16933 -0.0482,0.0298 -0.0847,-0.0431 -0.0847,-0.16933 z m -20.23533,0.0423 c 0,-0.0466 0.0381,-0.0847 0.0847,-0.0847 0.0466,0 0.0847,0.0381 0.0847,0.0847 0,0.0466 -0.0381,0.0847 -0.0847,0.0847 -0.0466,0 -0.0847,-0.0381 -0.0847,-0.0847 z m -7.35932,-0.38805 c 0.004,-0.0986 0.0241,-0.1187 0.0512,-0.0511 0.0245,0.0611 0.0215,0.13414 -0.007,0.16227 -0.0281,0.0281 -0.0481,-0.0219 -0.0445,-0.11112 z m -37.676667,-1.016 c 0.0041,-0.0986 0.02412,-0.1187 0.05115,-0.0512 0.02446,0.0611 0.02145,0.13414 -0.0067,0.16227 -0.02813,0.0281 -0.04814,-0.0219 -0.04447,-0.11112 z m 4.141983,0.0494 c 0,-0.0466 0.0381,-0.0847 0.08467,-0.0847 0.04657,0 0.08467,0.0381 0.08467,0.0847 0,0.0466 -0.0381,0.0847 -0.08467,0.0847 -0.04657,0 -0.08467,-0.0381 -0.08467,-0.0847 z m 39.370004,-0.42334 c 0,-0.0466 0.0381,-0.0847 0.0847,-0.0847 0.0466,0 0.0847,0.0381 0.0847,0.0847 0,0.0466 -0.0381,0.0847 -0.0847,0.0847 -0.0466,0 -0.0847,-0.0381 -0.0847,-0.0847 z m -43.264671,-0.33367 c 0,-0.0438 0.0381,-0.10321 0.08467,-0.13199 0.04657,-0.0288 0.08467,0.007 0.08467,0.0797 0,0.0726 -0.0381,0.13199 -0.08467,0.13199 -0.04657,0 -0.08467,-0.0359 -0.08467,-0.0797 z m 44.788671,-0.17433 c 0,-0.0466 0.0381,-0.0847 0.0847,-0.0847 0.0466,0 0.0847,0.0381 0.0847,0.0847 0,0.0466 -0.0381,0.0847 -0.0847,0.0847 -0.0466,0 -0.0847,-0.0381 -0.0847,-0.0847 z m -65.870672,-0.67733 c 0,-0.0466 0.0381,-0.0847 0.08467,-0.0847 0.04657,0 0.08467,0.0381 0.08467,0.0847 0,0.0466 -0.0381,0.0847 -0.08467,0.0847 -0.04657,0 -0.08467,-0.0381 -0.08467,-0.0847 z m 86.366682,-0.0494 c 0.004,-0.0986 0.0241,-0.11869 0.0512,-0.0512 0.0245,0.0611 0.0215,0.13414 -0.007,0.16228 -0.0281,0.0281 -0.0481,-0.0219 -0.0445,-0.11113 z m 5.49666,-0.32661 c 0,-0.0726 0.0381,-0.132 0.0847,-0.132 0.0466,0 0.0847,0.0359 0.0847,0.0797 0,0.0438 -0.0381,0.10322 -0.0847,0.132 -0.0466,0.0288 -0.0847,-0.007 -0.0847,-0.0797 z m -5.334,-0.0473 c 0,-0.0466 0.0381,-0.0847 0.0847,-0.0847 0.0466,0 0.0847,0.0381 0.0847,0.0847 0,0.0466 -0.0381,0.0847 -0.0847,0.0847 -0.0466,0 -0.0847,-0.0381 -0.0847,-0.0847 z m -24.90788,-0.0578 c 0.0611,-0.0245 0.13414,-0.0215 0.16228,0.007 0.0281,0.0281 -0.0219,0.0482 -0.11113,0.0445 -0.0986,-0.004 -0.11869,-0.0241 -0.0511,-0.0512 z m 36.93054,-0.19616 c 0,-0.0466 0.0381,-0.0847 0.0847,-0.0847 0.0466,0 0.0847,0.0381 0.0847,0.0847 0,0.0466 -0.0381,0.0847 -0.0847,0.0847 -0.0466,0 -0.0847,-0.0381 -0.0847,-0.0847 z m -39.70867,-0.254 c 0,-0.0466 0.0381,-0.0847 0.0847,-0.0847 0.0466,0 0.0847,0.0381 0.0847,0.0847 0,0.0466 -0.0381,0.0847 -0.0847,0.0847 -0.0466,0 -0.0847,-0.0381 -0.0847,-0.0847 z m -20.99733,-0.84667 c 0,-0.0466 0.0381,-0.0847 0.08467,-0.0847 0.04657,0 0.08467,0.0381 0.08467,0.0847 0,0.0466 -0.0381,0.0847 -0.08467,0.0847 -0.04657,0 -0.08467,-0.0381 -0.08467,-0.0847 z m 81.11067,0 c 0,-0.0466 0.0381,-0.0847 0.0847,-0.0847 0.0466,0 0.0847,0.0381 0.0847,0.0847 0,0.0466 -0.0381,0.0847 -0.0847,0.0847 -0.0466,0 -0.0847,-0.0381 -0.0847,-0.0847 z m -95.758004,-0.0847 c 0,-0.0466 0.0381,-0.0847 0.08467,-0.0847 0.04657,0 0.08467,0.0381 0.08467,0.0847 0,0.0466 -0.0381,0.0847 -0.08467,0.0847 -0.04657,0 -0.08467,-0.0381 -0.08467,-0.0847 z m -20.066001,-0.84666 c 0,-0.0466 0.0381,-0.0847 0.08467,-0.0847 0.04657,0 0.08467,0.0381 0.08467,0.0847 0,0.0466 -0.0381,0.0847 -0.08467,0.0847 -0.04657,0 -0.08467,-0.0381 -0.08467,-0.0847 z m 31.14146,-0.81984 c 0.06112,-0.0245 0.134144,-0.0215 0.162278,0.007 0.02813,0.0281 -0.02187,0.0482 -0.111125,0.0445 -0.09863,-0.004 -0.118695,-0.0241 -0.05115,-0.0512 z m 28.125205,-0.0642 c 0,-0.0726 0.0381,-0.13199 0.0847,-0.13199 0.0466,0 0.0847,0.0358 0.0847,0.0797 0,0.0438 -0.0381,0.10321 -0.0847,0.13199 -0.0466,0.0288 -0.0847,-0.007 -0.0847,-0.0797 z m 12.446,-0.42333 c 0,-0.0726 0.0381,-0.132 0.0847,-0.132 0.0466,0 0.0847,0.0359 0.0847,0.0797 0,0.0438 -0.0381,0.10322 -0.0847,0.132 -0.0466,0.0288 -0.0847,-0.007 -0.0847,-0.0797 z m -5.67266,-0.55533 c 0,-0.0466 0.0381,-0.0847 0.0847,-0.0847 0.0466,0 0.0847,0.0381 0.0847,0.0847 0,0.0466 -0.0381,0.0847 -0.0847,0.0847 -0.0466,0 -0.0847,-0.0381 -0.0847,-0.0847 z m -12.78467,-0.33867 c 0,-0.0466 0.0381,-0.0847 0.0847,-0.0847 0.0466,0 0.0847,0.0381 0.0847,0.0847 0,0.0466 -0.0381,0.0847 -0.0847,0.0847 -0.0466,0 -0.0847,-0.0381 -0.0847,-0.0847 z m 6.94267,-0.33866 c 0,-0.0466 0.0381,-0.0847 0.0847,-0.0847 0.0466,0 0.0847,0.0381 0.0847,0.0847 0,0.0466 -0.0381,0.0847 -0.0847,0.0847 -0.0466,0 -0.0847,-0.0381 -0.0847,-0.0847 z m 0.254,-0.42334 c 0,-0.0466 0.0381,-0.0847 0.0847,-0.0847 0.0466,0 0.0847,0.0381 0.0847,0.0847 0,0.0466 -0.0381,0.0847 -0.0847,0.0847 -0.0466,0 -0.0847,-0.0381 -0.0847,-0.0847 z m 0.254,-0.42333 c 0,-0.0466 0.0381,-0.0847 0.0847,-0.0847 0.0466,0 0.0847,0.0381 0.0847,0.0847 0,0.0466 -0.0381,0.0847 -0.0847,0.0847 -0.0466,0 -0.0847,-0.0381 -0.0847,-0.0847 z m 11.94468,-0.13405 c 0.004,-0.0986 0.0241,-0.1187 0.0511,-0.0512 0.0245,0.0611 0.0215,0.13415 -0.007,0.16228 -0.0281,0.0281 -0.0482,-0.0219 -0.0445,-0.11112 z m -0.17602,-5.96195 c 0,-0.0466 0.0381,-0.0847 0.0847,-0.0847 0.0466,0 0.0847,0.0381 0.0847,0.0847 0,0.0466 -0.0381,0.0847 -0.0847,0.0847 -0.0466,0 -0.0847,-0.0381 -0.0847,-0.0847 z m -1.524,-1.778 c 0,-0.0466 0.0381,-0.0847 0.0847,-0.0847 0.0466,0 0.0847,0.0381 0.0847,0.0847 0,0.0466 -0.0381,0.0847 -0.0847,0.0847 -0.0466,0 -0.0847,-0.0381 -0.0847,-0.0847 z m -0.762,-0.59267 c 0,-0.0466 0.0381,-0.0847 0.0847,-0.0847 0.0466,0 0.0847,0.0381 0.0847,0.0847 0,0.0466 -0.0381,0.0847 -0.0847,0.0847 -0.0466,0 -0.0847,-0.0381 -0.0847,-0.0847 z m -9.05933,-0.0847 c 0,-0.0466 0.0381,-0.0847 0.0847,-0.0847 0.0466,0 0.0847,0.0381 0.0847,0.0847 0,0.0466 -0.0381,0.0847 -0.0847,0.0847 -0.0466,0 -0.0847,-0.0381 -0.0847,-0.0847 z"
         id="path6076"
         inkscape:connector-curvature="0" />
    </g>
  </g>
</svg>
